<?xml version="1.0" encoding="UTF-8" standalone="no"?>
<!DOCTYPE svg PUBLIC "-//W3C//DTD SVG 1.1//EN"
 "http://www.w3.org/Graphics/SVG/1.1/DTD/svg11.dtd">
<!-- Generated by graphviz version 2.40.1 (20161225.0304)
 -->
<!-- Title: G Pages: 1 -->
<svg width="574pt" height="996pt"
 viewBox="0.00 0.00 573.77 996.00" xmlns="http://www.w3.org/2000/svg" xmlns:xlink="http://www.w3.org/1999/xlink">
<g id="graph0" class="graph" transform="scale(1 1) rotate(0) translate(4 992)">
<title>G</title>
<polygon fill="#ffffff" stroke="transparent" points="-4,4 -4,-992 569.7659,-992 569.7659,4 -4,4"/>
<g id="clust1" class="cluster">
<title>cluster_Global</title>
<path fill="none" stroke="#c0c0c0" d="M444.7659,-8C444.7659,-8 545.7659,-8 545.7659,-8 551.7659,-8 557.7659,-14 557.7659,-20 557.7659,-20 557.7659,-968 557.7659,-968 557.7659,-974 551.7659,-980 545.7659,-980 545.7659,-980 444.7659,-980 444.7659,-980 438.7659,-980 432.7659,-974 432.7659,-968 432.7659,-968 432.7659,-20 432.7659,-20 432.7659,-14 438.7659,-8 444.7659,-8"/>
<text text-anchor="middle" x="495.2659" y="-967.2" font-family="Times,serif" font-size="11.00" fill="#c0c0c0">Global</text>
</g>
<g id="clust2" class="cluster">
<title>cluster_\Peto16</title>
<path fill="none" stroke="#c0c0c0" d="M452.7659,-16C452.7659,-16 537.7659,-16 537.7659,-16 543.7659,-16 549.7659,-22 549.7659,-28 549.7659,-28 549.7659,-940 549.7659,-940 549.7659,-946 543.7659,-952 537.7659,-952 537.7659,-952 452.7659,-952 452.7659,-952 446.7659,-952 440.7659,-946 440.7659,-940 440.7659,-940 440.7659,-28 440.7659,-28 440.7659,-22 446.7659,-16 452.7659,-16"/>
<text text-anchor="middle" x="495.2659" y="-939.2" font-family="Times,serif" font-size="11.00" fill="#c0c0c0">Peto16</text>
</g>
<g id="clust3" class="cluster">
<title>cluster_\Peto16\Cookie</title>
<path fill="none" stroke="#c0c0c0" d="M472.2659,-852C472.2659,-852 518.2659,-852 518.2659,-852 524.2659,-852 530.2659,-858 530.2659,-864 530.2659,-864 530.2659,-912 530.2659,-912 530.2659,-918 524.2659,-924 518.2659,-924 518.2659,-924 472.2659,-924 472.2659,-924 466.2659,-924 460.2659,-918 460.2659,-912 460.2659,-912 460.2659,-864 460.2659,-864 460.2659,-858 466.2659,-852 472.2659,-852"/>
<text text-anchor="middle" x="495.2659" y="-911.2" font-family="Times,serif" font-size="11.00" fill="#c0c0c0">Cookie</text>
</g>
<g id="clust4" class="cluster">
<title>cluster_\Peto16\Navbar</title>
<path fill="none" stroke="#c0c0c0" d="M472.2659,-772C472.2659,-772 518.2659,-772 518.2659,-772 524.2659,-772 530.2659,-778 530.2659,-784 530.2659,-784 530.2659,-832 530.2659,-832 530.2659,-838 524.2659,-844 518.2659,-844 518.2659,-844 472.2659,-844 472.2659,-844 466.2659,-844 460.2659,-838 460.2659,-832 460.2659,-832 460.2659,-784 460.2659,-784 460.2659,-778 466.2659,-772 472.2659,-772"/>
<text text-anchor="middle" x="495.2659" y="-831.2" font-family="Times,serif" font-size="11.00" fill="#c0c0c0">Navbar</text>
</g>
<g id="clust5" class="cluster">
<title>cluster_\Peto16\Calendar</title>
<path fill="none" stroke="#c0c0c0" d="M466.7659,-638C466.7659,-638 523.7659,-638 523.7659,-638 529.7659,-638 535.7659,-644 535.7659,-650 535.7659,-650 535.7659,-752 535.7659,-752 535.7659,-758 529.7659,-764 523.7659,-764 523.7659,-764 466.7659,-764 466.7659,-764 460.7659,-764 454.7659,-758 454.7659,-752 454.7659,-752 454.7659,-650 454.7659,-650 454.7659,-644 460.7659,-638 466.7659,-638"/>
<text text-anchor="middle" x="495.2659" y="-751.2" font-family="Times,serif" font-size="11.00" fill="#c0c0c0">Calendar</text>
</g>
<g id="clust6" class="cluster">
<title>cluster_\Peto16\Database</title>
<path fill="none" stroke="#c0c0c0" d="M463.7659,-504C463.7659,-504 526.7659,-504 526.7659,-504 532.7659,-504 538.7659,-510 538.7659,-516 538.7659,-516 538.7659,-618 538.7659,-618 538.7659,-624 532.7659,-630 526.7659,-630 526.7659,-630 463.7659,-630 463.7659,-630 457.7659,-630 451.7659,-624 451.7659,-618 451.7659,-618 451.7659,-516 451.7659,-516 451.7659,-510 457.7659,-504 463.7659,-504"/>
<text text-anchor="middle" x="495.2659" y="-617.2" font-family="Times,serif" font-size="11.00" fill="#c0c0c0">Database</text>
</g>
<g id="clust7" class="cluster">
<title>cluster_\Peto16\Session</title>
<path fill="none" stroke="#c0c0c0" d="M469.7659,-424C469.7659,-424 520.7659,-424 520.7659,-424 526.7659,-424 532.7659,-430 532.7659,-436 532.7659,-436 532.7659,-484 532.7659,-484 532.7659,-490 526.7659,-496 520.7659,-496 520.7659,-496 469.7659,-496 469.7659,-496 463.7659,-496 457.7659,-490 457.7659,-484 457.7659,-484 457.7659,-436 457.7659,-436 457.7659,-430 463.7659,-424 469.7659,-424"/>
<text text-anchor="middle" x="495.2659" y="-483.2" font-family="Times,serif" font-size="11.00" fill="#c0c0c0">Session</text>
</g>
<g id="clust8" class="cluster">
<title>cluster_\Peto16\Webshop</title>
<path fill="none" stroke="#c0c0c0" d="M469.7659,-344C469.7659,-344 520.7659,-344 520.7659,-344 526.7659,-344 532.7659,-350 532.7659,-356 532.7659,-356 532.7659,-404 532.7659,-404 532.7659,-410 526.7659,-416 520.7659,-416 520.7659,-416 469.7659,-416 469.7659,-416 463.7659,-416 457.7659,-410 457.7659,-404 457.7659,-404 457.7659,-356 457.7659,-356 457.7659,-350 463.7659,-344 469.7659,-344"/>
<text text-anchor="middle" x="495.2659" y="-403.2" font-family="Times,serif" font-size="11.00" fill="#c0c0c0">Webshop</text>
</g>
<g id="clust9" class="cluster">
<title>cluster_\Peto16\App</title>
<path fill="none" stroke="#c0c0c0" d="M472.2659,-264C472.2659,-264 518.2659,-264 518.2659,-264 524.2659,-264 530.2659,-270 530.2659,-276 530.2659,-276 530.2659,-324 530.2659,-324 530.2659,-330 524.2659,-336 518.2659,-336 518.2659,-336 472.2659,-336 472.2659,-336 466.2659,-336 460.2659,-330 460.2659,-324 460.2659,-324 460.2659,-276 460.2659,-276 460.2659,-270 466.2659,-264 472.2659,-264"/>
<text text-anchor="middle" x="495.2659" y="-323.2" font-family="Times,serif" font-size="11.00" fill="#c0c0c0">App</text>
</g>
<g id="clust10" class="cluster">
<title>cluster_\Peto16\User</title>
<path fill="none" stroke="#c0c0c0" d="M472.2659,-184C472.2659,-184 518.2659,-184 518.2659,-184 524.2659,-184 530.2659,-190 530.2659,-196 530.2659,-196 530.2659,-244 530.2659,-244 530.2659,-250 524.2659,-256 518.2659,-256 518.2659,-256 472.2659,-256 472.2659,-256 466.2659,-256 460.2659,-250 460.2659,-244 460.2659,-244 460.2659,-196 460.2659,-196 460.2659,-190 466.2659,-184 472.2659,-184"/>
<text text-anchor="middle" x="495.2659" y="-243.2" font-family="Times,serif" font-size="11.00" fill="#c0c0c0">User</text>
</g>
<g id="clust11" class="cluster">
<title>cluster_\Peto16\Content</title>
<path fill="none" stroke="#c0c0c0" d="M469.7659,-104C469.7659,-104 520.7659,-104 520.7659,-104 526.7659,-104 532.7659,-110 532.7659,-116 532.7659,-116 532.7659,-164 532.7659,-164 532.7659,-170 526.7659,-176 520.7659,-176 520.7659,-176 469.7659,-176 469.7659,-176 463.7659,-176 457.7659,-170 457.7659,-164 457.7659,-164 457.7659,-116 457.7659,-116 457.7659,-110 463.7659,-104 469.7659,-104"/>
<text text-anchor="middle" x="495.2659" y="-163.2" font-family="Times,serif" font-size="11.00" fill="#c0c0c0">Content</text>
</g>
<g id="clust12" class="cluster">
<title>cluster_\Peto16\Textfilter</title>
<path fill="none" stroke="#c0c0c0" d="M460.7659,-24C460.7659,-24 529.7659,-24 529.7659,-24 535.7659,-24 541.7659,-30 541.7659,-36 541.7659,-36 541.7659,-84 541.7659,-84 541.7659,-90 535.7659,-96 529.7659,-96 529.7659,-96 460.7659,-96 460.7659,-96 454.7659,-96 448.7659,-90 448.7659,-84 448.7659,-84 448.7659,-36 448.7659,-36 448.7659,-30 454.7659,-24 460.7659,-24"/>
<text text-anchor="middle" x="495.2659" y="-83.2" font-family="Times,serif" font-size="11.00" fill="#c0c0c0">Textfilter</text>
</g>
<!-- \\Peto16\\Cookie\\Cookie -->
<g id="node1" class="node">
<title>\\Peto16\\Cookie\\Cookie</title>
<polygon fill="none" stroke="#000000" points="522.2659,-896 468.2659,-896 468.2659,-860 522.2659,-860 522.2659,-896"/>
<text text-anchor="middle" x="495.2659" y="-875.2" font-family="Courier,monospace" font-size="11.00" fill="#000000">Cookie</text>
</g>
<!-- \\Peto16\\Navbar\\Navbar -->
<g id="node2" class="node">
<title>\\Peto16\\Navbar\\Navbar</title>
<polygon fill="none" stroke="#000000" points="522.2659,-816 468.2659,-816 468.2659,-780 522.2659,-780 522.2659,-816"/>
<text text-anchor="middle" x="495.2659" y="-795.2" font-family="Courier,monospace" font-size="11.00" fill="#000000">Navbar</text>
</g>
<!-- \\Anax\\Common\\ConfigureInterface -->
<g id="node13" class="node">
<title>\\Anax\\Common\\ConfigureInterface</title>
<ellipse fill="none" stroke="#000000" cx="192.3829" cy="-664" rx="173.5692" ry="18"/>
<text text-anchor="middle" x="192.3829" y="-660.3" font-family="Times,serif" font-size="14.00" fill="#c0c0c0">\Anax\Common\ConfigureInterface</text>
</g>
<!-- \\Peto16\\Navbar\\Navbar&#45;&gt;\\Anax\\Common\\ConfigureInterface -->
<g id="edge1" class="edge">
<title>\\Peto16\\Navbar\\Navbar&#45;&gt;\\Anax\\Common\\ConfigureInterface</title>
<path fill="none" stroke="#000000" stroke-dasharray="1,5" d="M468.1205,-785.9905C416.9836,-763.3667 305.7337,-714.1481 241.2632,-685.6254"/>
<polygon fill="none" stroke="#000000" points="242.6643,-682.4181 232.1033,-681.5729 239.8322,-688.8196 242.6643,-682.4181"/>
</g>
<!-- \\Anax\\Common\\AppInjectableInterface -->
<g id="node14" class="node">
<title>\\Anax\\Common\\AppInjectableInterface</title>
<ellipse fill="none" stroke="#000000" cx="192.3829" cy="-798" rx="192.2659" ry="18"/>
<text text-anchor="middle" x="192.3829" y="-794.3" font-family="Times,serif" font-size="14.00" fill="#c0c0c0">\Anax\Common\AppInjectableInterface</text>
</g>
<!-- \\Peto16\\Navbar\\Navbar&#45;&gt;\\Anax\\Common\\AppInjectableInterface -->
<g id="edge2" class="edge">
<title>\\Peto16\\Navbar\\Navbar&#45;&gt;\\Anax\\Common\\AppInjectableInterface</title>
<path fill="none" stroke="#000000" stroke-dasharray="1,5" d="M468.1205,-798C449.8714,-798 423.9666,-798 395.2642,-798"/>
<polygon fill="none" stroke="#000000" points="395.0032,-794.5001 385.0032,-798 395.0031,-801.5001 395.0032,-794.5001"/>
</g>
<!-- \\Peto16\\Calendar\\Calendar -->
<g id="node3" class="node">
<title>\\Peto16\\Calendar\\Calendar</title>
<polygon fill="none" stroke="#000000" points="527.7659,-736 462.7659,-736 462.7659,-700 527.7659,-700 527.7659,-736"/>
<text text-anchor="middle" x="495.2659" y="-715.2" font-family="Courier,monospace" font-size="11.00" fill="#000000">Calendar</text>
</g>
<!-- \\Peto16\\Calendar\\Month -->
<g id="node4" class="node">
<title>\\Peto16\\Calendar\\Month</title>
<polygon fill="none" stroke="#000000" points="522.2659,-682 468.2659,-682 468.2659,-646 522.2659,-646 522.2659,-682"/>
<text text-anchor="middle" x="495.2659" y="-661.2" font-family="Courier,monospace" font-size="11.00" fill="#000000">Month</text>
</g>
<!-- \\Peto16\\Database\\Exception -->
<g id="node5" class="node">
<title>\\Peto16\\Database\\Exception</title>
<polygon fill="none" stroke="#000000" points="530.7659,-548 459.7659,-548 459.7659,-512 530.7659,-512 530.7659,-548"/>
<text text-anchor="middle" x="495.2659" y="-527.2" font-family="Courier,monospace" font-size="11.00" fill="#000000">Exception</text>
</g>
<!-- \\Exception -->
<g id="node15" class="node">
<title>\\Exception</title>
<ellipse fill="none" stroke="#000000" cx="192.3829" cy="-530" rx="60.3893" ry="18"/>
<text text-anchor="middle" x="192.3829" y="-526.3" font-family="Times,serif" font-size="14.00" fill="#c0c0c0">\Exception</text>
</g>
<!-- \\Peto16\\Database\\Exception&#45;&gt;\\Exception -->
<g id="edge3" class="edge">
<title>\\Peto16\\Database\\Exception&#45;&gt;\\Exception</title>
<path fill="none" stroke="#000000" d="M459.6307,-530C411.4885,-530 324.6174,-530 262.9981,-530"/>
<polygon fill="none" stroke="#000000" points="262.9529,-526.5001 252.9528,-530 262.9528,-533.5001 262.9529,-526.5001"/>
</g>
<!-- \\Peto16\\Database\\Database -->
<g id="node6" class="node">
<title>\\Peto16\\Database\\Database</title>
<polygon fill="none" stroke="#000000" points="527.7659,-602 462.7659,-602 462.7659,-566 527.7659,-566 527.7659,-602"/>
<text text-anchor="middle" x="495.2659" y="-581.2" font-family="Courier,monospace" font-size="11.00" fill="#000000">Database</text>
</g>
<!-- \\Peto16\\Database\\Database&#45;&gt;\\Anax\\Common\\ConfigureInterface -->
<g id="edge4" class="edge">
<title>\\Peto16\\Database\\Database&#45;&gt;\\Anax\\Common\\ConfigureInterface</title>
<path fill="none" stroke="#000000" stroke-dasharray="1,5" d="M462.5643,-592.6374C415.8103,-604.9865 328.5925,-628.0232 265.884,-644.5863"/>
<polygon fill="none" stroke="#000000" points="264.8147,-641.2486 256.0401,-647.1863 266.6023,-648.0165 264.8147,-641.2486"/>
</g>
<!-- \\Peto16\\Session\\Session -->
<g id="node7" class="node">
<title>\\Peto16\\Session\\Session</title>
<polygon fill="none" stroke="#000000" points="524.7659,-468 465.7659,-468 465.7659,-432 524.7659,-432 524.7659,-468"/>
<text text-anchor="middle" x="495.2659" y="-447.2" font-family="Courier,monospace" font-size="11.00" fill="#000000">Session</text>
</g>
<!-- \\Peto16\\Webshop\\Webshop -->
<g id="node8" class="node">
<title>\\Peto16\\Webshop\\Webshop</title>
<polygon fill="none" stroke="#000000" points="524.7659,-388 465.7659,-388 465.7659,-352 524.7659,-352 524.7659,-388"/>
<text text-anchor="middle" x="495.2659" y="-367.2" font-family="Courier,monospace" font-size="11.00" fill="#000000">Webshop</text>
</g>
<!-- \\Peto16\\App\\App -->
<g id="node9" class="node">
<title>\\Peto16\\App\\App</title>
<polygon fill="none" stroke="#000000" points="522.2659,-308 468.2659,-308 468.2659,-272 522.2659,-272 522.2659,-308"/>
<text text-anchor="middle" x="495.2659" y="-287.2" font-family="Courier,monospace" font-size="11.00" fill="#000000">App</text>
</g>
<!-- \\Peto16\\User\\User -->
<g id="node10" class="node">
<title>\\Peto16\\User\\User</title>
<polygon fill="none" stroke="#000000" points="522.2659,-228 468.2659,-228 468.2659,-192 522.2659,-192 522.2659,-228"/>
<text text-anchor="middle" x="495.2659" y="-207.2" font-family="Courier,monospace" font-size="11.00" fill="#000000">User</text>
</g>
<!-- \\Peto16\\Content\\Content -->
<g id="node11" class="node">
<title>\\Peto16\\Content\\Content</title>
<polygon fill="none" stroke="#000000" points="524.7659,-148 465.7659,-148 465.7659,-112 524.7659,-112 524.7659,-148"/>
<text text-anchor="middle" x="495.2659" y="-127.2" font-family="Courier,monospace" font-size="11.00" fill="#000000">Content</text>
</g>
<!-- \\Peto16\\Textfilter\\Textfilter -->
<g id="node12" class="node">
<title>\\Peto16\\Textfilter\\Textfilter</title>
<polygon fill="none" stroke="#000000" points="533.7659,-68 456.7659,-68 456.7659,-32 533.7659,-32 533.7659,-68"/>
<text text-anchor="middle" x="495.2659" y="-47.2" font-family="Courier,monospace" font-size="11.00" fill="#000000">Textfilter</text>
</g>
</g>
</svg>
